Coordinates
version=1
nRows=11
nColumns=40
inDegrees=yes

Units are S.I. units (second, meters, Newtons, ...)
If the header above contains a line with 'inDegrees', this indicates whether rotational values are in degrees (yes) or radians (no).

endheader
time	pelvis_tilt	pelvis_list	pelvis_rotation	pelvis_tx	pelvis_ty	pelvis_tz	hip_flexion_r	hip_adduction_r	hip_rotation_r	knee_angle_r	knee_angle_r_beta	ankle_angle_r	subtalar_angle_r	mtp_angle_r	hip_flexion_l	hip_adduction_l	hip_rotation_l	knee_angle_l	knee_angle_l_beta	ankle_angle_l	subtalar_angle_l	mtp_angle_l	lumbar_extension	lumbar_bending	lumbar_rotation	arm_flex_r	arm_add_r	arm_rot_r	elbow_flex_r	pro_sup_r	wrist_flex_r	wrist_dev_r	arm_flex_l	arm_add_l	arm_rot_l	elbow_flex_l	pro_sup_l	wrist_flex_l	wrist_dev_l
      4.25000000	     10.41469657	     -3.88881489	      1.46248745	     -0.29438730	      0.86439037	     -1.02698441	     61.26508888	     -0.50500867	     -7.48673285	     30.23166780	      0.52764214	     -1.24491332	      0.00000000	      0.00000000	     32.14263155	     -6.62626056	     -8.52218274	     84.51241039	      1.47501982	     33.10802330	      0.00000000	      0.00000000	    -22.76278683	     -4.84885773	     -4.94450105	     89.90629670	     -5.93176171	     28.06986329	     29.37277058	     85.14105556	      0.00000000	      0.00000000	     89.93891964	    -18.80754381	     36.80969667	     35.44052781	     84.48889359	      0.00000000	      0.00000000
      4.25500000	     10.39701631	     -3.88734375	      1.49345902	     -0.29450158	      0.86441347	     -1.02701291	     61.35836257	     -0.51759261	     -7.56311813	     30.33371328	      0.52942317	     -1.26597774	      0.00000000	      0.00000000	     32.16163378	     -6.65050918	     -8.53729504	     84.49750660	      1.47475970	     33.05307446	      0.00000000	      0.00000000	    -22.76548729	     -4.85842523	     -4.95770988	     89.90633526	     -5.93042941	     28.07078974	     29.38061626	     85.07737777	      0.00000000	      0.00000000	     89.93909899	    -18.76472788	     36.73600706	     35.45353490	     84.63765517	      0.00000000	      0.00000000
      4.26000000	     10.39845454	     -3.84685050	      1.52662807	     -0.29461317	      0.86448183	     -1.02712172	     61.42631540	     -0.55385540	     -7.57667659	     30.46443421	      0.53170468	     -1.27613821	      0.00000000	      0.00000000	     32.17662958	     -6.62149096	     -8.56513743	     84.49615023	      1.47473603	     33.03268993	      0.00000000	      0.00000000	    -22.79640718	     -4.89834461	     -4.97968734	     89.90701196	     -5.94022467	     28.02311140	     29.44733037	     85.08710888	      0.00000000	      0.00000000	     89.93934390	    -18.72361021	     36.68267931	     35.50612714	     84.49004188	      0.00000000	      0.00000000
      4.26500000	     10.40091995	     -3.81769877	      1.54031410	     -0.29470432	      0.86455044	     -1.02710859	     61.49060716	     -0.56132580	     -7.61477535	     30.55995672	      0.53337186	     -1.29014759	      0.00000000	      0.00000000	     32.16904875	     -6.62112258	     -8.59969293	     84.46442524	      1.47418232	     32.97874953	      0.00000000	      0.00000000	    -22.82535953	     -4.93802215	     -4.97199561	     89.90715789	     -5.92691066	     27.83227145	     29.51694116	     84.99037742	      0.00000000	      0.00000000	     89.93959779	    -18.67365571	     36.62438987	     35.55468736	     84.52274849	      0.00000000	      0.00000000
      4.27000000	     10.44253350	     -3.73256041	      1.55780051	     -0.29477691	      0.86474613	     -1.02717296	     61.51855712	     -0.61186706	     -7.63116581	     30.67133550	      0.53531579	     -1.24218466	      0.00000000	      0.00000000	     32.09212864	     -6.55094012	     -8.65443338	     84.40914061	      1.47321742	     32.94139681	      0.00000000	      0.00000000	    -22.89615562	     -5.03671796	     -5.01204825	     89.90766510	     -5.91060364	     27.81215881	     29.53353022	     84.93370254	      0.00000000	      0.00000000	     89.93979517	    -18.65694611	     36.60278202	     35.61794061	     84.51625681	      0.00000000	      0.00000000
      4.27500000	     10.41847809	     -3.70830066	      1.60519781	     -0.29489250	      0.86476373	     -1.02722577	     61.60246382	     -0.64643103	     -7.67399124	     30.76459953	      0.53694355	     -1.28910758	      0.00000000	      0.00000000	     32.12521781	     -6.57409638	     -8.70769248	     84.40129045	      1.47308041	     32.87739504	      0.00000000	      0.00000000	    -22.90200349	     -5.05813465	     -5.06175990	     89.90812517	     -5.87829565	     27.69052317	     29.56965697	     84.98292312	      0.00000000	      0.00000000	     89.93994754	    -18.63948409	     36.54518471	     35.63639546	     84.56630181	      0.00000000	      0.00000000
      4.28000000	     10.41599642	     -3.67117475	      1.61089022	     -0.29497746	      0.86480723	     -1.02722925	     61.66189034	     -0.64632552	     -7.70680263	     30.83128882	      0.53810750	     -1.27827921	      0.00000000	      0.00000000	     32.13631955	     -6.53343682	     -8.69846698	     84.39064006	      1.47289453	     32.81123432	      0.00000000	      0.00000000	    -22.92093275	     -5.11293973	     -5.06455682	     89.90877900	     -5.90017944	     27.77186059	     29.60660687	     84.89386228	      0.00000000	      0.00000000	     89.94003635	    -18.58371130	     36.41725240	     35.63684476	     84.47703503	      0.00000000	      0.00000000
      4.28500000	     10.38830004	     -3.66335529	      1.65637800	     -0.29507794	      0.86480104	     -1.02725835	     61.73917955	     -0.66602134	     -7.77190453	     30.90766373	      0.53944050	     -1.39355162	      0.00000000	      0.00000000	     32.16597215	     -6.56076208	     -8.73095697	     84.36754731	      1.47249148	     32.79721954	      0.00000000	      0.00000000	    -22.91595396	     -5.11773458	     -5.10231186	     89.90871260	     -5.84591038	     27.50931119	     29.60099731	     84.93042710	      0.00000000	      0.00000000	     89.94032622	    -18.58894696	     36.42278548	     35.71685974	     84.53132546	      0.00000000	      0.00000000
      4.29000000	     10.37334144	     -3.66381304	      1.70155334	     -0.29516803	      0.86482065	     -1.02726133	     61.79128677	     -0.67436953	     -7.83293165	     30.95671977	      0.54029669	     -1.33762232	      0.00000000	      0.00000000	     32.18975002	     -6.57353048	     -8.71398571	     84.35846948	      1.47233304	     32.80357198	      0.00000000	      0.00000000	    -22.92658494	     -5.12526367	     -5.15175039	     89.90879581	     -5.80809640	     27.40731852	     29.63025623	     84.95366826	      0.00000000	      0.00000000	     89.94051992	    -18.60868392	     36.42202488	     35.83831131	     84.52212056	      0.00000000	      0.00000000
      4.29500000	     10.36754250	     -3.63906727	      1.73559512	     -0.29527036	      0.86486712	     -1.02726248	     61.85361381	     -0.68445273	     -7.85831365	     31.03210845	      0.54161247	     -1.40240603	      0.00000000	      0.00000000	     32.19938553	     -6.56406414	     -8.72963089	     84.34276533	      1.47205896	     32.75523135	      0.00000000	      0.00000000	    -22.94419869	     -5.15559256	     -5.17948372	     89.90913420	     -5.79486435	     27.32181735	     29.68695236	     84.93131703	      0.00000000	      0.00000000	     89.94066443	    -18.57549213	     36.31710843	     35.83617766	     84.58367900	      0.00000000	      0.00000000
      4.30000000	     10.35227305	     -3.60135036	      1.77008148	     -0.29534900	      0.86490794	     -1.02729491	     61.90590215	     -0.70689498	     -7.88655342	     31.07778813	      0.54240973	     -1.38011338	      0.00000000	      0.00000000	     32.20565356	     -6.54435911	     -8.77643231	     84.30124712	      1.47133433	     32.74217755	      0.00000000	      0.00000000	    -22.95269507	     -5.19465605	     -5.22947500	     89.90917576	     -5.77613205	     27.35093934	     29.69649724	     84.88987079	      0.00000000	      0.00000000	     89.94092535	    -18.58806233	     36.35721005	     35.89844173	     84.42769270	      0.00000000	      0.00000000
